<svg width="20" height="24" viewBox="0 0 20 24" fill="none" xmlns="http://www.w3.org/2000/svg">
<path d="M6.97892 22.0485L6.79539 21.9993C6.65186 21.9156 6.53973 21.7872 6.47616 21.6336C6.41259 21.4801 6.40108 21.31 6.44341 21.1493L8.84266 12.1951L6.10909 11.4627C5.29701 11.2451 4.60462 10.7138 4.18425 9.98571C3.76388 9.25761 3.64997 8.39234 3.86757 7.58025L5.82941 0.258532C5.88319 0.0678461 6.0093 -0.0943027 6.18088 -0.193365C6.35246 -0.292427 6.55595 -0.32057 6.74797 -0.271798L12.5435 1.28112C12.7342 1.33489 12.8964 1.46101 12.9954 1.63259C13.0945 1.80417 13.1226 2.00765 13.0739 2.19968L11.7151 7.27079L15.6367 8.32159C16.0779 8.43588 16.4808 8.66544 16.804 8.98673C17.1272 9.30802 17.3592 9.70949 17.4762 10.15C17.5943 10.5908 17.5943 11.055 17.4762 11.4958C17.3581 11.9367 17.126 12.3387 16.8032 12.6614L7.70512 21.8497C7.61294 21.9448 7.49693 22.0134 7.3692 22.0484C7.24146 22.0833 7.10668 22.0834 6.97892 22.0485Z" fill="#1CA1D0"/>
</svg>
