<svg width="25" height="24" viewBox="0 0 25 24" fill="none" xmlns="http://www.w3.org/2000/svg">
<g clip-path="url(#clip0_202_1022)">
<path d="M17.2454 19.83H4.13536C3.85481 19.8313 3.57675 19.7772 3.31717 19.6707C3.0576 19.5643 2.8216 19.4076 2.62276 19.2097C2.42391 19.0118 2.26612 18.7765 2.15845 18.5174C2.05078 18.2583 1.99536 17.9805 1.99536 17.7V9.07999C1.99795 8.88188 2.0778 8.69262 2.2179 8.55252C2.35799 8.41243 2.54725 8.33258 2.74536 8.32999H18.5754C18.7743 8.32999 18.965 8.409 19.1057 8.54966C19.2463 8.69031 19.3254 8.88107 19.3254 9.07999V17.7C19.3255 18.2563 19.108 18.7907 18.7193 19.1887C18.3306 19.5868 17.8016 19.8169 17.2454 19.83ZM3.54536 9.82999V17.7C3.54799 17.868 3.61657 18.0282 3.73631 18.1461C3.85605 18.264 4.01734 18.33 4.18536 18.33H17.2454C17.4124 18.33 17.5727 18.2636 17.6908 18.1455C17.809 18.0273 17.8754 17.8671 17.8754 17.7V9.82999H3.54536Z" fill="#1CA1D0"/>
<path d="M13.5054 14.83C13.3064 14.83 13.1157 14.751 12.975 14.6103C12.8344 14.4697 12.7554 14.2789 12.7554 14.08V9.21998L11.3954 5.66998H1.56536L3.38536 8.66998C3.44702 8.75405 3.49048 8.85005 3.51296 8.95185C3.53544 9.05365 3.53645 9.15902 3.51593 9.26124C3.4954 9.36346 3.45379 9.46027 3.39375 9.5455C3.33371 9.63073 3.25655 9.70251 3.16722 9.75625C3.07788 9.80999 2.97832 9.84452 2.87489 9.85762C2.77146 9.87073 2.66644 9.86213 2.56652 9.83237C2.4666 9.80261 2.37399 9.75234 2.29458 9.68478C2.21518 9.61722 2.15074 9.53385 2.10536 9.43998L-0.394638 5.29998C-0.463548 5.18704 -0.500004 5.05729 -0.500004 4.92498C-0.500004 4.79268 -0.463548 4.66293 -0.394638 4.54998C-0.331852 4.43506 -0.239308 4.33915 -0.126706 4.27229C-0.0141047 4.20543 0.114408 4.1701 0.245362 4.16998H11.9154C12.0669 4.16993 12.2148 4.21575 12.3398 4.30144C12.4647 4.38712 12.5608 4.50863 12.6154 4.64998L14.2454 8.80998C14.2811 8.8954 14.2981 8.98745 14.2954 9.07998V14.08C14.297 14.1824 14.2773 14.2839 14.2377 14.3783C14.198 14.4727 14.1392 14.5579 14.065 14.6283C13.9907 14.6988 13.9026 14.7532 13.8063 14.7879C13.71 14.8226 13.6075 14.8369 13.5054 14.83Z" fill="#1CA1D0"/>
<path d="M18.5754 9.82999H13.5754C13.4528 9.83065 13.3319 9.80084 13.2237 9.74324C13.1155 9.68564 13.0233 9.60205 12.9554 9.49999C12.8848 9.39905 12.8413 9.28168 12.829 9.15913C12.8168 9.03657 12.8362 8.91292 12.8854 8.79999L14.5454 4.63999C14.6015 4.50052 14.6982 4.38113 14.8231 4.29732C14.9479 4.21351 15.095 4.16915 15.2454 4.16999H20.2454C20.368 4.16934 20.4888 4.19915 20.597 4.25675C20.7052 4.31435 20.7974 4.39794 20.8654 4.49999C20.935 4.6012 20.9787 4.71796 20.9927 4.84002C21.0066 4.96207 20.9904 5.08569 20.9454 5.19999L19.2454 9.35999C19.1923 9.49555 19.1004 9.61245 18.9812 9.69605C18.8621 9.77965 18.7209 9.82624 18.5754 9.82999ZM14.6854 8.32999H18.0754L19.1354 5.66999H15.7554L14.6854 8.32999Z" fill="#1CA1D0"/>
</g>
<defs>
<clipPath id="clip0_202_1022">
<rect width="24" height="24" fill="white" transform="translate(0.5)"/>
</clipPath>
</defs>
</svg>
