<svg width="21" height="16" viewBox="0 0 21 16" fill="none" xmlns="http://www.w3.org/2000/svg">
<path d="M17.2454 15.83H4.13536C3.85481 15.8313 3.57675 15.7772 3.31717 15.6707C3.0576 15.5643 2.8216 15.4076 2.62276 15.2097C2.42391 15.0118 2.26612 14.7765 2.15845 14.5174C2.05078 14.2583 1.99536 13.9805 1.99536 13.7V5.07999C1.99795 4.88188 2.0778 4.69262 2.2179 4.55252C2.35799 4.41243 2.54725 4.33258 2.74536 4.32999H18.5754C18.7743 4.32999 18.965 4.409 19.1057 4.54966C19.2463 4.69031 19.3254 4.88107 19.3254 5.07999V13.7C19.3255 14.2563 19.108 14.7907 18.7193 15.1887C18.3306 15.5868 17.8016 15.8169 17.2454 15.83V15.83ZM3.54536 5.82999V13.7C3.54799 13.868 3.61657 14.0282 3.73631 14.1461C3.85605 14.264 4.01734 14.33 4.18536 14.33H17.2454C17.4124 14.33 17.5727 14.2636 17.6908 14.1455C17.809 14.0273 17.8754 13.8671 17.8754 13.7V5.82999H3.54536Z" fill="#78828A"/>
<path d="M13.5054 10.83C13.3065 10.83 13.1157 10.751 12.975 10.6103C12.8344 10.4697 12.7554 10.2789 12.7554 10.08V5.21998L11.3954 1.66998H1.56536L3.38536 4.66998C3.44702 4.75405 3.49048 4.85005 3.51296 4.95185C3.53544 5.05365 3.53645 5.15902 3.51593 5.26124C3.4954 5.36346 3.45379 5.46027 3.39375 5.5455C3.33371 5.63073 3.25655 5.70251 3.16722 5.75625C3.07788 5.80999 2.97832 5.84452 2.87489 5.85762C2.77146 5.87073 2.66644 5.86213 2.56652 5.83237C2.4666 5.80261 2.37399 5.75234 2.29458 5.68478C2.21518 5.61722 2.15074 5.53385 2.10536 5.43998L-0.394638 1.29998C-0.463548 1.18704 -0.500004 1.05729 -0.500004 0.924983C-0.500004 0.792676 -0.463548 0.662928 -0.394638 0.549983C-0.331852 0.435062 -0.239308 0.339146 -0.126706 0.272289C-0.0141047 0.205432 0.114408 0.170095 0.245362 0.169983H11.9154C12.0669 0.169925 12.2148 0.215754 12.3398 0.301436C12.4647 0.387118 12.5608 0.508634 12.6154 0.649983L14.2454 4.80998C14.2811 4.8954 14.2981 4.98745 14.2954 5.07998V10.08C14.297 10.1824 14.2773 10.2839 14.2377 10.3783C14.198 10.4727 14.1392 10.5579 14.065 10.6283C13.9907 10.6988 13.9026 10.7532 13.8063 10.7879C13.71 10.8226 13.6075 10.8369 13.5054 10.83V10.83Z" fill="#78828A"/>
<path d="M18.5754 5.82999H13.5754C13.4528 5.83065 13.3319 5.80084 13.2237 5.74324C13.1155 5.68564 13.0233 5.60205 12.9554 5.49999C12.8848 5.39905 12.8413 5.28168 12.829 5.15913C12.8168 5.03657 12.8362 4.91292 12.8854 4.79999L14.5454 0.639995C14.6015 0.500516 14.6982 0.381126 14.8231 0.297317C14.9479 0.213508 15.095 0.169148 15.2454 0.169995H20.2454C20.368 0.169339 20.4888 0.199151 20.597 0.256752C20.7052 0.314352 20.7974 0.397937 20.8654 0.499995C20.935 0.601197 20.9787 0.717959 20.9927 0.840016C21.0066 0.962073 20.9904 1.08569 20.9454 1.19999L19.2454 5.35999C19.1923 5.49555 19.1004 5.61245 18.9812 5.69605C18.8621 5.77965 18.7209 5.82624 18.5754 5.82999V5.82999ZM14.6854 4.32999H18.0754L19.1354 1.66999H15.7554L14.6854 4.32999Z" fill="#78828A"/>
</svg>
